HIERARCHY
ROOT Hips
{
	OFFSET 0.000000 71.427986 0.000000
	CHANNELS 6 Xposition Yposition Zposition Xrotation Yrotation Zrotation
	JOINT Pelvis
	{
		OFFSET 0.000000 0.000000 0.000000
		CHANNELS 3 Xrotation Yrotation Zrotation
		JOINT LeftUpLeg
		{
			OFFSET 6.797100 -2.508499 -1.318700
			CHANNELS 3 Xrotation Yrotation Zrotation
			JOINT LeftLeg
			{
				OFFSET 0.069008 -29.241863 0.690200
				CHANNELS 3 Xrotation Yrotation Zrotation
				JOINT LeftFoot
				{
					OFFSET -0.069008 -29.568123 -0.266800
					CHANNELS 3 Xrotation Yrotation Zrotation
					JOINT LeftToeBase
					{
						OFFSET 3.145500 -8.631000 16.059900
						CHANNELS 3 Xrotation Yrotation Zrotation
						End Site
						{
							OFFSET 0.000000 18.501587 0.000000
						}
					}
				}
			}
			JOINT Left_ShortSleeve
			{
				OFFSET 0.265923 -10.480953 1.153800
				CHANNELS 3 Xrotation Yrotation Zrotation
				End Site
				{
					OFFSET 1.725763 19.823879 0.000000
				}
			}
		}
		JOINT RightUpLeg
		{
			OFFSET -6.797100 -2.508499 -1.318700
			CHANNELS 3 Xrotation Yrotation Zrotation
			JOINT RightLeg
			{
				OFFSET -0.082453 -29.241932 0.688000
				CHANNELS 3 Xrotation Yrotation Zrotation
				JOINT RightFoot
				{
					OFFSET 0.082453 -29.568058 -0.264600
					CHANNELS 3 Xrotation Yrotation Zrotation
					JOINT RightToeBase
					{
						OFFSET -3.115300 -8.682800 16.113400
						CHANNELS 3 Xrotation Yrotation Zrotation
						End Site
						{
							OFFSET 0.000000 18.567114 0.000000
						}
					}
				}
			}
			JOINT Right_ShortSleeve
			{
				OFFSET -0.265923 -10.480953 1.153800
				CHANNELS 3 Xrotation Yrotation Zrotation
				End Site
				{
					OFFSET -1.725766 19.823910 0.000000
				}
			}
		}
	}
	JOINT Spine
	{
		OFFSET 0.000000 13.368103 0.470500
		CHANNELS 3 Xrotation Yrotation Zrotation
		JOINT Spine1
		{
			OFFSET 0.147000 13.837402 0.538800
			CHANNELS 3 Xrotation Yrotation Zrotation
			JOINT Spine2
			{
				OFFSET 0.168000 16.242897 -1.435500
				CHANNELS 3 Xrotation Yrotation Zrotation
				JOINT Neck
				{
					OFFSET 0.217200 18.631500 -1.679100
					CHANNELS 3 Xrotation Yrotation Zrotation
					JOINT Head
					{
						OFFSET 0.000000 6.599396 1.385900
						CHANNELS 3 Xrotation Yrotation Zrotation
						JOINT Hat
						{
							OFFSET -0.532200 27.220596 -10.096100
							CHANNELS 3 Xrotation Yrotation Zrotation
							End Site
							{
								OFFSET 0.000000 22.029861 0.000000
							}
						}
						JOINT HairD
						{
							OFFSET -10.777400 17.437393 -1.325900
							CHANNELS 3 Xrotation Yrotation Zrotation
							JOINT HairD1
							{
								OFFSET -3.290299 -11.051193 1.062200
								CHANNELS 3 Xrotation Yrotation Zrotation
								End Site
								{
									OFFSET 0.000000 11.579437 0.000000
								}
							}
						}
						JOINT HairB
						{
							OFFSET -10.777400 17.437393 1.467900
							CHANNELS 3 Xrotation Yrotation Zrotation
							JOINT HairB1
							{
								OFFSET -1.561200 -12.956299 3.590200
								CHANNELS 3 Xrotation Yrotation Zrotation
								End Site
								{
									OFFSET 0.000000 13.534866 0.000000
								}
							}
						}
						JOINT HairA
						{
							OFFSET 9.713100 17.437393 1.467900
							CHANNELS 3 Xrotation Yrotation Zrotation
							JOINT HairA1
							{
								OFFSET 1.561200 -12.956299 3.590200
								CHANNELS 3 Xrotation Yrotation Zrotation
								End Site
								{
									OFFSET 0.000000 13.534866 0.000000
								}
							}
						}
						JOINT HairC
						{
							OFFSET 9.713100 17.437393 -1.325900
							CHANNELS 3 Xrotation Yrotation Zrotation
							JOINT HairC1
							{
								OFFSET 3.290300 -11.051193 1.062200
								CHANNELS 3 Xrotation Yrotation Zrotation
								End Site
								{
									OFFSET 0.000000 11.579437 0.000000
								}
							}
						}
					}
				}
				JOINT LeftShoulder
				{
					OFFSET 5.101800 15.108002 -2.763700
					CHANNELS 3 Xrotation Yrotation Zrotation
					JOINT LeftArm
					{
						OFFSET 9.825497 2.506317 -1.597400
						CHANNELS 3 Xrotation Yrotation Zrotation
						JOINT LeftForeArm
						{
							OFFSET 21.966244 0.000000 0.000000
							CHANNELS 3 Xrotation Yrotation Zrotation
							JOINT LeftHand
							{
								OFFSET 33.879036 0.000000 0.000000
								CHANNELS 3 Xrotation Yrotation Zrotation
								JOINT LeftHandThumb1
								{
									OFFSET 6.715286 -2.359680 3.363841
									CHANNELS 3 Xrotation Yrotation Zrotation
									JOINT LeftHandThumb2
									{
										OFFSET 2.507072 -1.447464 1.447461
										CHANNELS 3 Xrotation Yrotation Zrotation
										JOINT LeftHandThumb3
										{
											OFFSET 2.898338 -1.673355 1.673357
											CHANNELS 3 Xrotation Yrotation Zrotation
											End Site
											{
												OFFSET -0.295959 3.727692 -0.131651
											}
										}
									}
								}
								JOINT LeftHandIndex1
								{
									OFFSET 14.190811 -0.254547 3.840278
									CHANNELS 3 Xrotation Yrotation Zrotation
									JOINT LeftHandIndex2
									{
										OFFSET 3.551727 0.000000 -0.000000
										CHANNELS 3 Xrotation Yrotation Zrotation
										JOINT LeftHandIndex3
										{
											OFFSET 2.894196 0.000000 0.000000
											CHANNELS 3 Xrotation Yrotation Zrotation
											End Site
											{
												OFFSET -1.000603 2.690872 0.366626
											}
										}
									}
								}
								JOINT LeftHandMiddle1
								{
									OFFSET 13.776489 0.000000 0.000000
									CHANNELS 3 Xrotation Yrotation Zrotation
									JOINT LeftHandMiddle2
									{
										OFFSET 3.438232 0.000000 0.000000
										CHANNELS 3 Xrotation Yrotation Zrotation
										JOINT LeftHandMiddle3
										{
											OFFSET 3.691551 0.000000 0.000000
											CHANNELS 3 Xrotation Yrotation Zrotation
											End Site
											{
												OFFSET -1.082298 3.499527 0.457670
											}
										}
									}
								}
								JOINT LeftHandRing1
								{
									OFFSET 13.966164 -0.268127 -3.067488
									CHANNELS 3 Xrotation Yrotation Zrotation
									JOINT LeftHandRing2
									{
										OFFSET 3.162567 0.000000 0.000000
										CHANNELS 3 Xrotation Yrotation Zrotation
										JOINT LeftHandRing3
										{
											OFFSET 3.324348 0.000000 0.000000
											CHANNELS 3 Xrotation Yrotation Zrotation
											End Site
											{
												OFFSET -0.861900 3.184998 0.405154
											}
										}
									}
								}
								JOINT LeftHandPinky1
								{
									OFFSET 13.131393 -0.168503 -5.746925
									CHANNELS 3 Xrotation Yrotation Zrotation
									JOINT LeftHandPinky2
									{
										OFFSET 2.849182 0.000000 0.000000
										CHANNELS 3 Xrotation Yrotation Zrotation
										JOINT LeftHandPinky3
										{
											OFFSET 2.805038 0.000000 0.000000
											CHANNELS 3 Xrotation Yrotation Zrotation
											End Site
											{
												OFFSET -0.882500 2.642609 0.325652
											}
										}
									}
								}
							}
							JOINT Left_Sleeve
							{
								OFFSET 6.592125 -0.646545 0.805568
								CHANNELS 3 Xrotation Yrotation Zrotation
								End Site
								{
									OFFSET -0.000179 20.275787 -0.000000
								}
							}
						}
					}
				}
				JOINT RightShoulder
				{
					OFFSET -5.731700 15.108002 -2.763700
					CHANNELS 3 Xrotation Yrotation Zrotation
					JOINT RightArm
					{
						OFFSET -9.825497 2.506317 -1.597400
						CHANNELS 3 Xrotation Yrotation Zrotation
						JOINT RightForeArm
						{
							OFFSET -21.966242 0.000000 0.000000
							CHANNELS 3 Xrotation Yrotation Zrotation
							JOINT RightHand
							{
								OFFSET -33.879032 0.000000 0.000000
								CHANNELS 3 Xrotation Yrotation Zrotation
								JOINT RightHandThumb1
								{
									OFFSET -6.715286 -2.359680 3.363841
									CHANNELS 3 Xrotation Yrotation Zrotation
									JOINT RightHandThumb2
									{
										OFFSET -2.507072 -1.447464 1.447461
										CHANNELS 3 Xrotation Yrotation Zrotation
										JOINT RightHandThumb3
										{
											OFFSET -2.898338 -1.673355 1.673357
											CHANNELS 3 Xrotation Yrotation Zrotation
											End Site
											{
												OFFSET 0.295959 3.727692 -0.131651
											}
										}
									}
								}
								JOINT RightHandIndex1
								{
									OFFSET -14.190811 -0.254547 3.840278
									CHANNELS 3 Xrotation Yrotation Zrotation
									JOINT RightHandIndex2
									{
										OFFSET -3.551727 0.000000 -0.000000
										CHANNELS 3 Xrotation Yrotation Zrotation
										JOINT RightHandIndex3
										{
											OFFSET -2.894196 0.000000 0.000000
											CHANNELS 3 Xrotation Yrotation Zrotation
											End Site
											{
												OFFSET 1.000603 2.690872 0.366626
											}
										}
									}
								}
								JOINT RightHandMiddle1
								{
									OFFSET -13.776489 0.000000 0.000000
									CHANNELS 3 Xrotation Yrotation Zrotation
									JOINT RightHandMiddle2
									{
										OFFSET -3.438232 0.000000 0.000000
										CHANNELS 3 Xrotation Yrotation Zrotation
										JOINT RightHandMiddle3
										{
											OFFSET -3.691551 0.000000 0.000000
											CHANNELS 3 Xrotation Yrotation Zrotation
											End Site
											{
												OFFSET 1.082298 3.499527 0.457670
											}
										}
									}
								}
								JOINT RightHandRing1
								{
									OFFSET -13.966164 -0.268127 -3.067488
									CHANNELS 3 Xrotation Yrotation Zrotation
									JOINT RightHandRing2
									{
										OFFSET -3.162567 0.000000 0.000000
										CHANNELS 3 Xrotation Yrotation Zrotation
										JOINT RightHandRing3
										{
											OFFSET -3.324348 0.000000 0.000000
											CHANNELS 3 Xrotation Yrotation Zrotation
											End Site
											{
												OFFSET 0.861900 3.184998 0.405154
											}
										}
									}
								}
								JOINT RightHandPinky1
								{
									OFFSET -13.131393 -0.168503 -5.746925
									CHANNELS 3 Xrotation Yrotation Zrotation
									JOINT RightHandPinky2
									{
										OFFSET -2.849182 0.000000 0.000000
										CHANNELS 3 Xrotation Yrotation Zrotation
										JOINT RightHandPinky3
										{
											OFFSET -2.805038 0.000000 0.000000
											CHANNELS 3 Xrotation Yrotation Zrotation
											End Site
											{
												OFFSET 0.882500 2.642609 0.325652
											}
										}
									}
								}
							}
							JOINT Right_Sleeve
							{
								OFFSET -6.592125 -0.646545 0.805568
								CHANNELS 3 Xrotation Yrotation Zrotation
								End Site
								{
									OFFSET 0.000179 20.275787 -0.000000
								}
							}
						}
					}
				}
				JOINT Bind_Right_JacketString
				{
					OFFSET -3.534800 11.969597 7.200700
					CHANNELS 3 Xrotation Yrotation Zrotation
					JOINT Bind_Right_JacketString1
					{
						OFFSET -0.319900 -6.102600 2.794100
						CHANNELS 3 Xrotation Yrotation Zrotation
						End Site
						{
							OFFSET 0.000000 6.719452 0.000000
						}
					}
				}
				JOINT Bind_Left_JacketString
				{
					OFFSET 2.904800 11.969597 7.200700
					CHANNELS 3 Xrotation Yrotation Zrotation
					JOINT Bind_Left_JacketString1
					{
						OFFSET 0.364800 -5.904503 3.186800
						CHANNELS 3 Xrotation Yrotation Zrotation
						End Site
						{
							OFFSET 0.000000 6.719513 0.000000
						}
					}
				}
				JOINT HairE
				{
					OFFSET 5.915200 17.612701 -11.592200
					CHANNELS 3 Xrotation Yrotation Zrotation
					JOINT HairE1
					{
						OFFSET 0.289200 -7.171898 -1.284500
						CHANNELS 3 Xrotation Yrotation Zrotation
						End Site
						{
							OFFSET 0.000000 7.291756 0.000000
						}
					}
				}
				JOINT HairF
				{
					OFFSET -0.864800 17.612701 -11.592200
					CHANNELS 3 Xrotation Yrotation Zrotation
					JOINT HairF1
					{
						OFFSET 0.000000 -14.087097 -2.127501
						CHANNELS 3 Xrotation Yrotation Zrotation
						End Site
						{
							OFFSET 0.000000 14.246841 0.000000
						}
					}
				}
				JOINT HairG
				{
					OFFSET -8.087700 17.612701 -11.592200
					CHANNELS 3 Xrotation Yrotation Zrotation
					JOINT HairG1
					{
						OFFSET -0.293600 -6.081398 -0.910100
						CHANNELS 3 Xrotation Yrotation Zrotation
						End Site
						{
							OFFSET 0.000000 6.156120 0.000000
						}
					}
				}
			}
		}
	}
	JOINT Pouch
	{
		OFFSET 0.000000 4.394501 10.847300
		CHANNELS 3 Xrotation Yrotation Zrotation
		End Site
		{
			OFFSET 0.000000 21.880577 0.000000
		}
	}
	JOINT Bag
	{
		OFFSET -13.229000 4.813004 -0.593300
		CHANNELS 3 Xrotation Yrotation Zrotation
		End Site
		{
			OFFSET 0.000000 21.880577 0.000000
		}
	}
	JOINT OccupyGuyFacialAnim_Joint
	{
		OFFSET 1.000000 -70.206398 -1.655000
		CHANNELS 3 Xrotation Yrotation Zrotation
		End Site
		{
			OFFSET 0.000000 21.880577 0.000000
		}
	}
}
MOTION
Frames: 4
Frame Time: 0.016667
0.013430 69.875648 2.015973 -2.728787 3.580309 0.644808 0.000000 -0.000000 -0.000000 -1.302938 11.734529 5.083016 19.962821 -4.327007 0.893972 -16.156760 0.919003 -4.377387 -0.000000 0.000000 -0.000000 -0.000001 -0.000001 -0.000000 1.180288 -4.849537 -3.920231 20.509045 -9.233883 3.734438 -17.235600 -19.116629 2.885809 -0.000000 -0.000000 0.000000 0.000000 0.000000 -0.000000 -0.565112 -0.778198 -3.774980 1.149532 -0.103991 1.499583 1.152621 -0.098085 1.497724 8.457851 0.270831 0.379498 -3.010871 1.242465 1.518414 0.000000 0.000000 -0.000000 0.000000 0.000000 -0.000000 0.000000 0.000000 0.000000 0.000000 0.000000 -0.000000 -0.000000 0.000000 -0.000000 0.000000 0.000000 -0.000000 -0.000000 0.000000 -0.000000 0.000000 0.000000 -0.000000 0.000000 0.000000 -0.000000 6.883880 -26.760620 -3.764303 5.911088 4.517229 -79.896370 -0.000000 -18.872940 -0.000003 -18.698681 1.922927 7.511042 -1.708931 11.916056 7.382946 4.613917 16.205054 1.361359 -0.000000 -0.000000 0.000001 0.412193 2.350828 -19.887609 0.808848 3.242964 -28.002753 0.000001 0.000001 -0.000000 0.585503 2.783224 -23.755704 0.716286 3.062837 -26.319953 -0.000000 0.000000 0.000001 0.650668 2.926618 -25.063977 1.383126 4.144259 -36.899038 0.000001 0.000000 -0.000002 2.588332 6.753848 -26.641469 1.376460 0.049915 -37.011142 0.000002 -0.000001 0.000003 0.000002 -0.000001 0.000000 0.447593 -3.990809 8.744684 8.902105 19.263654 69.814082 -0.000004 13.419893 0.000002 -28.538470 -11.177654 5.826637 -2.036779 -12.208780 -7.947295 5.412869 -17.299273 -0.815929 -0.000001 -0.000001 -0.000000 0.402317 -2.335098 19.548585 0.985292 -3.573140 30.823462 -0.000001 -0.000001 0.000002 0.542486 -2.697168 22.740645 1.054147 -3.685870 31.911095 0.000002 -0.000000 -0.000003 0.533149 -2.674792 22.541424 1.506291 -4.326614 38.375841 0.000002 0.000001 -0.000000 0.306500 -2.045508 17.041971 1.637529 -4.486880 40.083703 -0.000000 0.000001 0.000001 0.000002 -0.000000 0.000000 0.000000 0.000000 -0.000000 -0.000000 0.000000 -0.000000 0.000000 0.000000 0.000000 0.000000 0.000000 0.000000 0.000000 0.000000 -0.000000 -0.000000 0.000000 -0.000000 0.000000 0.000000 0.000000 0.000000 0.000000 0.000000 0.000000 0.000000 -0.000000 -0.000000 0.000000 -0.000000 0.000000 -0.000000 -0.000000 0.000000 -0.000000 -0.000000 0.000000 -0.000000 -0.000000 
0.008320 69.873817 2.027375 -2.715086 3.568797 0.640001 -0.000000 0.000000 -0.000000 -1.306885 11.737745 5.092176 19.964605 -4.320014 0.893432 -16.168603 0.920952 -4.385495 -0.000000 0.000000 -0.000000 -0.000000 -0.000003 -0.000000 1.177358 -4.851086 -3.916401 20.508041 -9.233325 3.741672 -17.247201 -19.103231 2.880294 0.000000 0.000000 0.000000 -0.000000 0.000000 -0.000000 -0.564252 -0.782840 -3.775584 1.145595 -0.104598 1.502204 1.148703 -0.098714 1.500344 8.441301 0.281180 0.369448 -3.009801 1.286436 1.518969 0.000000 0.000000 0.000000 0.000000 0.000000 0.000000 0.000000 0.000000 0.000000 0.000000 0.000000 0.000000 -0.000000 -0.000000 0.000000 0.000000 0.000000 0.000000 -0.000000 -0.000000 0.000000 0.000000 0.000000 0.000000 0.000000 0.000000 0.000000 6.880137 -26.751004 -3.764938 5.911939 4.505762 -79.903603 -0.000008 -18.867742 0.000005 -18.716265 1.935610 7.508172 -1.708928 11.916056 7.382947 4.613917 16.205061 1.361357 -0.000001 0.000001 0.000001 0.412526 2.351750 -19.895781 0.808928 3.243114 -28.004134 0.000001 0.000001 0.000000 0.585818 2.783943 -23.762223 0.716463 3.063189 -26.323211 0.000001 0.000000 0.000002 0.650936 2.927189 -25.069279 1.383303 4.144499 -36.901535 -0.000001 0.000000 -0.000002 2.588727 6.754095 -26.644874 1.376648 0.050168 -37.013721 0.000000 0.000000 0.000001 0.000001 -0.000000 0.000000 0.447803 -3.989256 8.743096 8.906562 19.272810 69.810298 -0.000007 13.433801 -0.000008 -28.531153 -11.162471 5.826451 -2.036782 -12.208782 -7.947299 5.412867 -17.299279 -0.815949 -0.000000 0.000000 -0.000000 0.402915 -2.336788 19.563313 0.985631 -3.573712 30.828936 0.000000 0.000001 -0.000007 0.543007 -2.698412 22.751437 1.054458 -3.686368 31.915924 0.000001 -0.000000 0.000001 0.533450 -2.675514 22.547836 1.506552 -4.326949 38.379328 0.000001 -0.000001 -0.000000 0.306654 -2.046011 17.046286 1.637642 -4.487014 40.085141 -0.000000 0.000000 -0.000001 0.000003 0.000000 0.000001 -0.000000 0.000000 -0.000000 -0.000000 0.000000 -0.000000 -0.000000 0.000000 -0.000000 -0.000000 0.000000 -0.000000 -0.000000 0.000000 -0.000000 -0.000000 0.000000 -0.000000 -0.000000 0.000000 -0.000000 -0.000000 0.000000 -0.000000 -0.000000 0.000000 -0.000000 -0.000000 0.000000 -0.000000 -0.000000 0.000000 -0.000000 -0.000000 0.000000 -0.000000 -0.000000 0.000000 -0.000000 
0.002770 69.872101 2.039392 -2.702248 3.557837 0.634713 0.000000 0.000000 0.000000 -1.309179 11.742010 5.102634 19.965194 -4.314438 0.892595 -16.180255 0.922964 -4.393792 -0.000000 0.000001 -0.000000 -0.000000 0.000000 -0.000000 1.177792 -4.852291 -3.911179 20.503938 -9.232999 3.748843 -17.258343 -19.091338 2.874195 -0.000000 0.000000 -0.000000 0.000000 0.000000 -0.000000 -0.562430 -0.789612 -3.776206 1.142374 -0.105478 1.505871 1.145511 -0.099612 1.504005 8.426179 0.289926 0.361756 -3.008405 1.323639 1.520888 -0.000000 -0.000000 -0.000000 -0.000000 -0.000000 -0.000000 -0.000000 -0.000000 -0.000000 -0.000000 -0.000000 -0.000000 -0.000001 -0.000000 -0.000000 -0.000000 -0.000000 -0.000000 -0.000001 -0.000000 -0.000000 -0.000000 -0.000000 -0.000000 -0.000000 -0.000000 -0.000000 6.876204 -26.741157 -3.765897 5.916043 4.497559 -79.909798 -0.000000 -18.862139 0.000021 -18.729895 1.945433 7.506010 -1.708929 11.916055 7.382950 4.613919 16.205061 1.361362 -0.000000 -0.000001 0.000003 0.412735 2.352318 -19.900796 0.808944 3.243151 -28.004483 0.000003 0.000001 0.000003 0.586070 2.784506 -23.767337 0.716604 3.063472 -26.325810 -0.000000 -0.000000 0.000002 0.651260 2.927873 -25.075545 1.383517 4.144785 -36.904502 -0.000002 0.000000 0.000000 2.589484 6.754575 -26.651273 1.377005 0.050641 -37.018642 0.000001 -0.000000 0.000003 0.000001 0.000001 -0.000000 0.447138 -3.992707 8.741734 8.916821 19.279773 69.800811 -0.000010 13.450144 0.000021 -28.539997 -11.159941 5.821325 -2.036774 -12.208769 -7.947302 5.412876 -17.299370 -0.815945 0.000000 0.000000 0.000000 0.403554 -2.338571 19.578864 0.986002 -3.574332 30.834862 -0.000001 -0.000000 0.000000 0.543658 -2.699953 22.764363 1.054834 -3.686967 31.921746 0.000000 0.000000 -0.000003 0.533917 -2.676636 22.557852 1.506955 -4.327451 38.384625 0.000001 -0.000000 -0.000003 0.307028 -2.047223 17.056700 1.638079 -4.487540 40.090796 -0.000000 0.000000 0.000000 -0.000000 0.000001 0.000000 -0.000000 -0.000000 0.000000 -0.000000 -0.000000 -0.000000 -0.000000 -0.000000 -0.000000 -0.000000 -0.000000 -0.000000 -0.000000 -0.000000 0.000000 -0.000000 -0.000000 -0.000000 -0.000000 -0.000000 -0.000000 -0.000000 -0.000000 -0.000000 -0.000000 -0.000000 0.000000 -0.000000 -0.000000 -0.000000 0.000000 0.000000 0.000000 0.000000 0.000000 0.000000 0.000000 0.000000 0.000000 
-0.002937 69.870544 2.052068 -2.690958 3.547792 0.629656 0.000000 -0.000000 -0.000000 -1.308450 11.746366 5.112723 19.963825 -4.309408 0.892418 -16.191435 0.925091 -4.402625 0.000000 -0.000000 0.000000 0.000000 -0.000001 -0.000000 1.181657 -4.853774 -3.905236 20.497965 -9.233182 3.755958 -17.269611 -19.081599 2.867694 -0.000000 0.000002 0.000000 -0.000000 -0.000000 -0.000000 -0.560093 -0.798075 -3.777134 1.140142 -0.106574 1.510630 1.143316 -0.100721 1.508753 8.412553 0.297273 0.355596 -3.006517 1.354629 1.523625 0.000000 -0.000000 0.000000 0.000000 -0.000000 0.000000 0.000000 -0.000000 0.000000 0.000000 -0.000000 -0.000000 -0.000000 -0.000000 -0.000000 0.000000 -0.000000 -0.000000 -0.000000 -0.000000 -0.000000 0.000000 -0.000000 0.000000 0.000000 -0.000000 0.000000 6.872130 -26.731021 -3.767448 5.921152 4.490968 -79.912790 -0.000004 -18.857094 -0.000009 -18.728874 1.952513 7.499001 -1.708929 11.916056 7.382944 4.613916 16.205059 1.361362 0.000001 0.000001 -0.000001 0.412750 2.352372 -19.901231 0.808881 3.243030 -28.003366 0.000002 0.000001 -0.000000 0.586202 2.784813 -23.770105 0.716677 3.063619 -26.327246 0.000002 -0.000000 -0.000001 0.651606 2.928612 -25.082270 1.383756 4.145096 -36.907778 0.000000 0.000001 0.000002 2.590591 6.755281 -26.660687 1.377529 0.051336 -37.025902 0.000001 -0.000001 -0.000001 0.000003 0.000000 -0.000001 0.445813 -3.999973 8.740759 8.930332 19.284667 69.787396 -0.000013 13.466605 0.000016 -28.561266 -11.168552 5.813749 -2.036776 -12.208783 -7.947272 5.412873 -17.299513 -0.815998 -0.000001 -0.000002 0.000000 0.404193 -2.340375 19.594605 0.986382 -3.574966 30.840992 0.000001 0.000000 0.000000 0.544392 -2.701704 22.778701 1.055266 -3.687655 31.928443 -0.000000 -0.000001 0.000001 0.534508 -2.678057 22.570497 1.507457 -4.328084 38.391298 -0.000002 0.000000 -0.000003 0.307573 -2.049010 17.072056 1.638685 -4.488250 40.098470 -0.000001 -0.000000 0.000004 -0.000001 0.000000 -0.000001 -0.000000 -0.000000 -0.000000 -0.000000 -0.000000 0.000000 -0.000000 -0.000000 -0.000000 -0.000000 -0.000000 -0.000000 -0.000000 -0.000000 -0.000000 -0.000000 -0.000000 0.000000 -0.000000 -0.000000 -0.000000 -0.000000 -0.000000 -0.000000 -0.000000 -0.000000 -0.000000 -0.000000 -0.000000 0.000000 0.000000 -0.000000 -0.000000 0.000000 -0.000000 -0.000000 0.000000 -0.000000 -0.000000 
